<?xml version="1.0" encoding="UTF-8"?>
<svg version="1.1" xmlns="http://www.w3.org/2000/svg" width="684" height="542">
<path d="M0 0 C225.72 0 451.44 0 684 0 C684 178.86 684 357.72 684 542 C458.28 542 232.56 542 0 542 C0 363.14 0 184.28 0 0 Z " fill="#1C0B2C" transform="translate(0,0)"/>
<path d="M0 0 C0.67675781 0.47050781 1.35351562 0.94101563 2.05078125 1.42578125 C9.04298208 6.74105169 13.06153253 14.56504694 15 23 C17.55041436 43.41496057 11.14661072 62.96753719 2 81 C1.17198922 82.76193795 0.34961138 84.52652831 -0.46875 86.29296875 C-10.12827617 107.06060429 -21.08356372 128.05953547 -36.95703125 144.83203125 C-38.88864052 146.88182694 -40.65618063 149.00756371 -42.4375 151.1875 C-46.34672484 155.67721298 -50.99879315 158.82693156 -56 162 C-56.66644531 162.42539062 -57.33289063 162.85078125 -58.01953125 163.2890625 C-64.84440618 167.42264688 -72.17323479 167.941849 -80 167 C-105.75419446 158.89158265 -123.79184731 127.09846164 -135.69824219 104.82275391 C-138.81362342 98.77337262 -141.81636595 92.67060917 -144.76635742 86.5390625 C-145.86254588 84.28290576 -146.9982747 82.05311922 -148.1484375 79.82421875 C-150.13269308 75.86932949 -151.63329577 71.80782672 -153.0625 67.625 C-153.31926514 66.88330566 -153.57603027 66.14161133 -153.84057617 65.37744141 C-159.26142987 49.60549425 -164.64114573 29.50914553 -157.453125 13.38671875 C-149.3605084 0.09481353 -138.29949972 -5.46315948 -123.85839844 -9.47265625 C-122.30357862 -9.91385578 -120.76283243 -10.40425757 -119.2265625 -10.90625 C-87.26171128 -20.98979928 -27.48892274 -20.67583346 0 0 Z " fill="#BFA2DB" transform="translate(417,149)"/>
<path d="M0 0 C225.72 0 451.44 0 684 0 C684 1.32 684 2.64 684 4 C459.6 4 235.2 4 4 4 C4 181.54 4 359.08 4 542 C2.68 542 1.36 542 0 542 C0 363.14 0 184.28 0 0 Z " fill="#DEDEDE" transform="translate(0,0)"/>
<path d="M0 0 C2.84525515 2.43879013 5.03785836 4.66762346 7.10546875 7.8046875 C6.61046875 9.2896875 6.61046875 9.2896875 6.10546875 10.8046875 C3.0859375 12.12109375 3.0859375 12.12109375 -0.70703125 13.3671875 C-5.54489142 14.93413502 -5.54489142 14.93413502 -10.19140625 16.96484375 C-11.89453125 17.8046875 -11.89453125 17.8046875 -14.33203125 17.6796875 C-17.45067525 16.61478467 -19.38795554 14.9154881 -21.89453125 12.8046875 C-26.44974792 11.28628194 -30.27348491 11.25284194 -34.83203125 12.8046875 C-37.21626095 15.11666781 -37.21690388 15.62365552 -37.26953125 18.8046875 C-37.13947109 21.44590929 -36.74597777 23.25034795 -35.89453125 25.8046875 C-33.67049914 26.69623493 -33.67049914 26.69623493 -30.95703125 27.2421875 C-16.9479286 30.76251613 -0.85303358 37.56494017 7.546875 49.92578125 C11.09436568 56.86007488 11.23019954 64.11806992 8.98046875 71.4921875 C2.65764148 82.66251568 -6.07660578 89.70208409 -18.26953125 93.9921875 C-31.11420703 96.87669243 -43.26689077 94.92404803 -54.51953125 88.2421875 C-60.62463607 83.94111365 -67.34084981 76.95499554 -69.89453125 69.8046875 C-69.6965332 67.81884766 -69.6965332 67.81884766 -68.89453125 65.8046875 C-67.08447266 64.61621094 -67.08447266 64.61621094 -64.74609375 63.6640625 C-63.905625 63.31601563 -63.06515625 62.96796875 -62.19921875 62.609375 C-61.31492187 62.26132813 -60.430625 61.91328125 -59.51953125 61.5546875 C-58.64296875 61.19117188 -57.76640625 60.82765625 -56.86328125 60.453125 C-50.35170935 57.8046875 -50.35170935 57.8046875 -46.89453125 57.8046875 C-46.6521875 58.48015625 -46.40984375 59.155625 -46.16015625 59.8515625 C-43.75104994 66.65889574 -43.75104994 66.65889574 -38.89453125 71.8046875 C-33.18166526 73.64230523 -26.377419 73.81811107 -20.83203125 71.5546875 C-17.55014952 68.59040723 -16.99265561 66.72051482 -16.51953125 62.3046875 C-16.96878899 58.1116153 -17.73279573 57.44391024 -20.89453125 54.8046875 C-23.46607048 53.43626654 -23.46607048 53.43626654 -26.33203125 52.3671875 C-27.3890625 51.944375 -28.44609375 51.5215625 -29.53515625 51.0859375 C-31.76787696 50.23438821 -34.00756841 49.40088797 -36.25390625 48.5859375 C-47.46385063 44.48088745 -55.65706046 39.49772874 -62.89453125 29.8046875 C-65.07056802 23.27657719 -65.19355244 14.58462621 -62.94140625 8.03125 C-58.26258606 0.36766521 -50.1374043 -5.48670619 -41.64453125 -8.1953125 C-26.76249844 -11.43883247 -12.21014928 -9.2821037 0 0 Z " fill="#62279A" transform="translate(371.89453125,164.1953125)"/>
<path d="M0 0 C6.1929597 -0.12360058 12.38520159 -0.21434054 18.57910156 -0.2746582 C20.68599961 -0.29980212 22.79281043 -0.33392207 24.89941406 -0.37719727 C27.9279532 -0.43785368 30.9553393 -0.46621083 33.984375 -0.48828125 C35.39707672 -0.52699089 35.39707672 -0.52699089 36.83831787 -0.56648254 C43.38648728 -0.56929076 43.38648728 -0.56929076 46.51660156 2.33520508 C47.00612305 3.2145874 47.49564453 4.09396973 48 5 C48.5775 6.03125 49.155 7.0625 49.75 8.125 C52.13682534 14.13140663 51.72928299 20.60957242 49.875 26.6875 C43.55217273 37.85782818 34.81792547 44.89739659 22.625 49.1875 C9.78032422 52.07200493 -2.37235952 50.11936053 -13.625 43.4375 C-19.73010482 39.13642615 -26.44631856 32.15030804 -29 25 C-28.80200195 23.01416016 -28.80200195 23.01416016 -28 21 C-26.18994141 19.81152344 -26.18994141 19.81152344 -23.8515625 18.859375 C-23.01109375 18.51132813 -22.170625 18.16328125 -21.3046875 17.8046875 C-20.42039062 17.45664063 -19.53609375 17.10859375 -18.625 16.75 C-17.7484375 16.38648438 -16.871875 16.02296875 -15.96875 15.6484375 C-9.4571781 13 -9.4571781 13 -6 13 C-5.75765625 13.67546875 -5.5153125 14.3509375 -5.265625 15.046875 C-2.85651869 21.85420824 -2.85651869 21.85420824 2 27 C7.71286599 28.83761773 14.51711225 29.01342357 20.0625 26.75 C23.34438173 23.78571973 23.90187564 21.91582732 24.375 17.5 C23.92491615 13.29921744 23.17816674 12.63697641 20 10 C17.22389554 8.56547611 17.22389554 8.56547611 14.1875 7.4375 C13.13304687 7.01726562 12.07859375 6.59703125 10.9921875 6.1640625 C10.00476563 5.77992188 9.01734375 5.39578125 8 5 C1.13953488 2.27906977 1.13953488 2.27906977 0 0 Z " fill="#221033" transform="translate(331,209)"/>
<path d="M0 0 C0.66 0 1.32 0 2 0 C1.45901864 5.59988817 -0.03015316 10.03202694 -2.375 15.125 C-2.7244165 15.89489258 -3.07383301 16.66478516 -3.43383789 17.45800781 C-10.24149752 32.22887077 -17.77486242 46.59097102 -27 60 C-27.94746094 61.38832031 -27.94746094 61.38832031 -28.9140625 62.8046875 C-38.69595801 76.69256384 -52.03658812 95.28946188 -69.41015625 99.59765625 C-79.723646 101.19990277 -87.26975526 99.87307373 -96 94 C-120.40279124 74.44051084 -135.70124595 46.75085442 -148.99121094 18.98339844 C-149.84461236 17.05215314 -149.84461236 17.05215314 -151 16 C-151.04080783 14.00041636 -151.04254356 11.99954746 -151 10 C-150.34 10 -149.68 10 -149 10 C-148.69932617 10.62753174 -148.39865234 11.25506348 -148.08886719 11.90161133 C-138.2428365 32.32858995 -127.21071292 51.29233228 -113 69 C-112.57509277 69.53093262 -112.15018555 70.06186523 -111.71240234 70.60888672 C-104.29129962 79.71834179 -93.60190533 90.02015536 -81.43359375 91.40625 C-65.80665918 91.7728643 -56.0310564 85.36609848 -44.71875 74.88671875 C-25.08949646 54.89759556 -9.99601215 26.0833442 0 0 Z " fill="#EDEBF0" transform="translate(421,216)"/>
<path d="M0 0 C2.97 0 5.94 0 9 0 C11.64 4.62 14.28 9.24 17 14 C17.33 9.38 17.66 4.76 18 0 C20.97 0 23.94 0 27 0 C27 11.22 27 22.44 27 34 C24.03 34 21.06 34 18 34 C17.67 32.68 17.34 31.36 17 30 C16.34 30 15.68 30 15 30 C14.72285156 29.37351562 14.44570313 28.74703125 14.16015625 28.1015625 C13.61681641 26.87566406 13.61681641 26.87566406 13.0625 25.625 C12.70285156 24.81289063 12.34320313 24.00078125 11.97265625 23.1640625 C11.3430097 21.76316215 10.68687358 20.37374716 10 19 C9.67 23.95 9.34 28.9 9 34 C6.03 34 3.06 34 0 34 C-0.16749457 29.47954554 -0.32806608 24.95891882 -0.48217773 20.43798828 C-0.53560391 18.89950922 -0.59093379 17.36109506 -0.64819336 15.82275391 C-0.73008748 13.61374914 -0.80517099 11.40460276 -0.87890625 9.1953125 C-0.90594131 8.50567413 -0.93297638 7.81603577 -0.96083069 7.10549927 C-1.11387171 2.22774341 -1.11387171 2.22774341 0 0 Z " fill="#D4C3E3" transform="translate(303,351)"/>
<path d="M0 0 C17.15513768 -0.74949631 17.15513768 -0.74949631 24 4 C26.08120767 8.16241534 25.47334373 13.46682347 25 18 C22.9375 21 22.9375 21 21 23 C21.10918824 26.4940238 23.22563068 29.0684333 25 32 C25 32.66 25 33.32 25 34 C19.89819189 34.70369767 19.89819189 34.70369767 17 34 C15.04355231 32.09884322 13.6808311 30.15092523 12.2265625 27.84765625 C11.12448019 25.85480901 11.12448019 25.85480901 9 25 C9 27.97 9 30.94 9 34 C6.03 34 3.06 34 0 34 C-0.16749457 29.47954554 -0.32806608 24.95891882 -0.48217773 20.43798828 C-0.53560391 18.89950922 -0.59093379 17.36109506 -0.64819336 15.82275391 C-0.73008748 13.61374914 -0.80517099 11.40460276 -0.87890625 9.1953125 C-0.90594131 8.50567413 -0.93297638 7.81603577 -0.96083069 7.10549927 C-1.11387171 2.22774341 -1.11387171 2.22774341 0 0 Z " fill="#AF8FCD" transform="translate(419,351)"/>
<path d="M0 0 C19.72693452 0 19.72693452 0 24.57421875 3.953125 C26.9441784 7.35547803 26.96621309 10.40031947 26.6484375 14.44921875 C25.73958345 18.02440967 23.76054372 19.65353783 21 22 C20.24978756 24.54367668 20.24978756 24.54367668 21 27 C22.29233607 28.37310707 23.62437146 29.71034824 25 31 C25 31.99 25 32.98 25 34 C22.36 34 19.72 34 17 34 C16.67 33.01 16.34 32.02 16 31 C15.34 31 14.68 31 14 31 C13.9175 30.38125 13.835 29.7625 13.75 29.125 C13.08785794 26.46510021 13.08785794 26.46510021 9 25 C9 27.97 9 30.94 9 34 C6.36 34 3.72 34 1 34 C0.67 22.78 0.34 11.56 0 0 Z " fill="#7C46B0" transform="translate(499,351)"/>
<path d="M0 0 C2.68860931 -0.10887507 5.37273158 -0.18770594 8.0625 -0.25 C8.81466797 -0.28351563 9.56683594 -0.31703125 10.34179688 -0.3515625 C16.08116412 -0.45094548 19.26411714 0.74219523 24 4 C26.49005677 6.49005677 26.29703766 7.37470732 26.3125 10.8125 C26.20930059 15.02546421 25.93076059 17.77616335 23 21 C18.2172507 24.22557511 14.56663461 24.28792938 9 24 C9 27.3 9 30.6 9 34 C6.03 34 3.06 34 0 34 C-0.16749457 29.47954554 -0.32806608 24.95891882 -0.48217773 20.43798828 C-0.53560391 18.89950922 -0.59093379 17.36109506 -0.64819336 15.82275391 C-0.73008748 13.61374914 -0.80517099 11.40460276 -0.87890625 9.1953125 C-0.90594131 8.50567413 -0.93297638 7.81603577 -0.96083069 7.10549927 C-1.11387171 2.22774341 -1.11387171 2.22774341 0 0 Z " fill="#976CC0" transform="translate(459,351)"/>
<path d="M0 0 C2.97 0 5.94 0 9 0 C9 4.62 9 9.24 9 14 C12.3 14 15.6 14 19 14 C19 9.38 19 4.76 19 0 C21.64 0 24.28 0 27 0 C27 11.22 27 22.44 27 34 C24.03 34 21.06 34 18 34 C18 29.71 18 25.42 18 21 C15.36 21 12.72 21 10 21 C10 25.29 10 29.58 10 34 C7.03 34 4.06 34 1 34 C1 25.09 1 16.18 1 7 C0.34 7 -0.32 7 -1 7 C-0.67 4.69 -0.34 2.38 0 0 Z " fill="#CEBCDF" transform="translate(183,351)"/>
<path d="M0 0 C3.63 0 7.26 0 11 0 C13.65771355 6.33762463 16.02361026 12.75052753 18.25 19.25 C18.52021973 20.01812012 18.79043945 20.78624023 19.06884766 21.57763672 C20.51500073 25.86401582 21.32150383 29.41126357 21 34 C18.36 34 15.72 34 13 34 C12.505 31.525 12.505 31.525 12 29 C8.37 29.33 4.74 29.66 1 30 C0.67 31.32 0.34 32.64 0 34 C-2.97 34 -5.94 34 -9 34 C-8.19621183 29.10780784 -6.59930961 24.51065466 -5.0625 19.8125 C-2.9456598 13.24703677 -1.11820899 6.82107486 0 0 Z " fill="#8655B4" transform="translate(70,351)"/>
<path d="M0 0 C2.97 0 5.94 0 9 0 C9.33 3.63 9.66 7.26 10 11 C10.40089844 10.2059375 10.80179688 9.411875 11.21484375 8.59375 C15.80274686 0.35425053 15.80274686 0.35425053 19.46875 -0.73046875 C21.73574334 -0.69101159 23.78984002 -0.49615836 26 0 C24.61979714 4.41664917 22.20776648 7.3847314 19.2421875 10.83984375 C17.51102593 13.85032283 17.50009813 15.56423377 18 19 C19.42560299 21.43257652 20.80272311 23.5328365 22.5 25.75 C27 31.79054054 27 31.79054054 27 34 C23.7 34 20.4 34 17 34 C16.5875 32.9275 16.175 31.855 15.75 30.75 C14.36260851 27.47734926 12.72000092 25.34482838 10 23 C9.67 26.63 9.34 30.26 9 34 C6.03 34 3.06 34 0 34 C-0.16749457 29.47954554 -0.32806608 24.95891882 -0.48217773 20.43798828 C-0.53560391 18.89950922 -0.59093379 17.36109506 -0.64819336 15.82275391 C-0.73008748 13.61374914 -0.80517099 11.40460276 -0.87890625 9.1953125 C-0.90594131 8.50567413 -0.93297638 7.81603577 -0.96083069 7.10549927 C-1.11387171 2.22774341 -1.11387171 2.22774341 0 0 Z " fill="#9F79C4" transform="translate(105,351)"/>
<path d="M0 0 C0.721875 0.53625 1.44375 1.0725 2.1875 1.625 C3.1775 2.285 4.1675 2.945 5.1875 3.625 C5.1875 4.615 5.1875 5.605 5.1875 6.625 C-0.60391983 7.64103857 -4.2709498 7.58763236 -9.8125 5.625 C-9.72498595 7.58667508 -9.72498595 7.58667508 -8.8125 9.625 C-6.40449456 10.84629435 -6.40449456 10.84629435 -3.5 11.625 C0.75847088 12.89856139 3.43783707 14.04404362 6.1875 17.625 C6.97885433 21.03055241 6.85455189 24.19851975 6.1875 27.625 C2.93913544 31.3245263 -0.21720546 32.38357725 -4.99609375 32.828125 C-9.78461236 32.92771291 -12.96151347 32.79640067 -16.8125 29.625 C-19.19496609 26.9960719 -19.8125 26.23665822 -19.8125 22.625 C-17.5025 21.965 -15.1925 21.305 -12.8125 20.625 C-12.255625 21.615 -12.255625 21.615 -11.6875 22.625 C-9.90355222 24.97803045 -9.90355222 24.97803045 -6.625 24.875 C-5.2328125 24.75125 -5.2328125 24.75125 -3.8125 24.625 C-3.93497069 22.17957061 -3.93497069 22.17957061 -4.8125 19.625 C-6.96626982 18.25872577 -6.96626982 18.25872577 -9.625 17.5 C-13.18780725 16.31064337 -16.05796499 15.24117937 -18.8125 12.625 C-19.27292106 9.45321046 -19.50623148 7.6409682 -18.8125 4.625 C-13.97992438 -1.51367714 -7.13417939 -3.48782103 0 0 Z " fill="#B599CF" transform="translate(162.8125,352.375)"/>
<path d="M0 0 C3.25667232 1.75927453 4.76168054 2.62488537 5.95703125 6.2109375 C2.73489368 8.35902921 1.67927724 8.50479903 -2.04296875 8.2109375 C-2.37296875 7.8809375 -2.70296875 7.5509375 -3.04296875 7.2109375 C-4.7091399 7.17029918 -6.3768497 7.1682165 -8.04296875 7.2109375 C-8.04296875 8.2009375 -8.04296875 9.1909375 -8.04296875 10.2109375 C-6.54443359 10.93410156 -6.54443359 10.93410156 -5.015625 11.671875 C-3.71208424 12.30957839 -2.40870724 12.94761661 -1.10546875 13.5859375 C-0.44611328 13.90304687 0.21324219 14.22015625 0.89257812 14.546875 C5.84375 16.984375 5.84375 16.984375 6.95703125 19.2109375 C7.65436781 26.30052588 7.65436781 26.30052588 4.70703125 30.1484375 C0.03527101 33.65225768 -4.28256868 33.64872791 -10.04296875 33.2109375 C-14.52792335 32.06362353 -17.05779253 29.70785822 -20.04296875 26.2109375 C-20.04296875 25.2209375 -20.04296875 24.2309375 -20.04296875 23.2109375 C-17.40296875 22.5509375 -14.76296875 21.8909375 -12.04296875 21.2109375 C-11.48609375 22.2009375 -11.48609375 22.2009375 -10.91796875 23.2109375 C-9.13402097 25.56396795 -9.13402097 25.56396795 -5.85546875 25.4609375 C-4.46328125 25.3371875 -4.46328125 25.3371875 -3.04296875 25.2109375 C-3.16451735 22.76007176 -3.16451735 22.76007176 -4.04296875 20.2109375 C-6.20330543 18.91729051 -6.20330543 18.91729051 -8.85546875 18.2109375 C-13.22159923 16.64937438 -15.80258166 15.48804012 -18.04296875 11.2109375 C-18.60546875 8.2109375 -18.60546875 8.2109375 -18.04296875 5.2109375 C-13.30681582 -0.54924849 -7.1698135 -2.76922051 0 0 Z " fill="#6425A1" transform="translate(657.04296875,351.7890625)"/>
<path d="M0 0 C1.8125 1.875 1.8125 1.875 3 4 C2.67 4.99 2.34 5.98 2 7 C-2.94367454 8.20577428 -6.20862412 7.6290678 -11 6 C-10.91302931 7.96445173 -10.91302931 7.96445173 -10 10 C-7.58915645 11.18420407 -7.58915645 11.18420407 -4.6875 11.9375 C-1.22417303 13.10243725 0.85916117 13.88208842 3.6875 16.25 C5.44835009 19.9394002 6.22438031 23.01270885 5 27 C1.15838867 31.15833993 -3.27783873 32.88889282 -8.875 33.25 C-13.91176991 33.17620117 -16.56056263 31.24491881 -20.3125 28 C-22 26 -22 26 -22 23 C-19.36 22.34 -16.72 21.68 -14 21 C-13.443125 21.99 -13.443125 21.99 -12.875 23 C-11.09105222 25.35303045 -11.09105222 25.35303045 -7.8125 25.25 C-6.4203125 25.12625 -6.4203125 25.12625 -5 25 C-5.12247069 22.55457061 -5.12247069 22.55457061 -6 20 C-8.15376982 18.63372577 -8.15376982 18.63372577 -10.8125 17.875 C-14.37530725 16.68564337 -17.24546499 15.61617937 -20 13 C-20.46042106 9.82821046 -20.69373148 8.0159682 -20 5 C-15.25671743 -1.02525083 -7.24110428 -3.21826857 0 0 Z " fill="#6525A2" transform="translate(583,352)"/>
<path d="M0 0 C3.46892258 1.28478614 5.39531636 2.0380033 7.375 5.1875 C7.58125 5.785625 7.7875 6.38375 8 7 C7.01 7 6.02 7 5 7 C5 7.66 5 8.32 5 9 C0.91281305 9.24042276 -2.17679443 8.42258812 -6 7 C-5.94963398 8.91929164 -5.94963398 8.91929164 -5 11 C-2.34077666 12.69826925 -2.34077666 12.69826925 0.875 14.0625 C7.8981531 17.2525346 7.8981531 17.2525346 10 20 C10.57075609 23.7506829 10.34180314 25.45564685 8.3125 28.6875 C4.56870821 32.43129179 1.88836637 34.1694716 -3.4375 34.375 C-8.59236269 34.18630286 -12.28954346 32.82448698 -15.875 29 C-17 27 -17 27 -17 24 C-16.01 24 -15.02 24 -14 24 C-14 23.34 -14 22.68 -14 22 C-12.35 22 -10.7 22 -9 22 C-8.34 23.65 -7.68 25.3 -7 27 C-3.535 26.505 -3.535 26.505 0 26 C-0.12200992 23.55185263 -0.12200992 23.55185263 -1 21 C-3.15706311 19.66999198 -3.15706311 19.66999198 -5.8125 18.9375 C-12.95033932 16.3539902 -12.95033932 16.3539902 -15 13 C-15.59725356 10.19348814 -15.68308404 7.79547838 -15 5 C-10.44866439 0.3288924 -6.39257221 -0.66539785 0 0 Z " fill="#6E32A7" transform="translate(40,351)"/>
<path d="M0 0 C0.87454834 0.00523682 1.74909668 0.01047363 2.65014648 0.01586914 C3.59438477 0.0190918 4.53862305 0.02231445 5.51147461 0.02563477 C6.50469727 0.03401367 7.49791992 0.04239258 8.52124023 0.05102539 C9.51833008 0.05553711 10.51541992 0.06004883 11.54272461 0.06469727 C14.01478872 0.07652532 16.48673541 0.0930069 18.95874023 0.11352539 C18.62874023 2.42352539 18.29874023 4.73352539 17.95874023 7.11352539 C14.32874023 7.11352539 10.69874023 7.11352539 6.95874023 7.11352539 C6.95874023 9.42352539 6.95874023 11.73352539 6.95874023 14.11352539 C9.59874023 14.11352539 12.23874023 14.11352539 14.95874023 14.11352539 C14.95874023 16.09352539 14.95874023 18.07352539 14.95874023 20.11352539 C11.98874023 20.11352539 9.01874023 20.11352539 5.95874023 20.11352539 C5.95874023 22.75352539 5.95874023 25.39352539 5.95874023 28.11352539 C10.57874023 28.11352539 15.19874023 28.11352539 19.95874023 28.11352539 C19.95874023 30.09352539 19.95874023 32.07352539 19.95874023 34.11352539 C12.69874023 34.11352539 5.43874023 34.11352539 -2.04125977 34.11352539 C-2.20672231 29.43220816 -2.36910748 24.75100252 -2.5234375 20.06933594 C-2.57692771 18.47552283 -2.63226232 16.88177054 -2.68945312 15.28808594 C-2.77116919 13.00216797 -2.84632873 10.71611593 -2.92016602 8.42993164 C-2.94720108 7.71325821 -2.97423615 6.99658478 -3.00209045 6.25819397 C-3.05423621 4.54404772 -3.05311605 2.82842363 -3.04125977 1.11352539 C-2.04125977 0.11352539 -2.04125977 0.11352539 0 0 Z " fill="#D2C2E1" transform="translate(269.041259765625,350.886474609375)"/>
<path d="M0 0 C7.26 0 14.52 0 22 0 C21.34 1.98 20.68 3.96 20 6 C16.37 6 12.74 6 9 6 C9 8.64 9 11.28 9 14 C11.64 14 14.28 14 17 14 C17 16.31 17 18.62 17 21 C14.69 21 12.38 21 10 21 C10 22.98 10 24.96 10 27 C13.96 27 17.92 27 22 27 C22 29.31 22 31.62 22 34 C15.07 34 8.14 34 1 34 C0.67 22.78 0.34 11.56 0 0 Z " fill="#6525A2" transform="translate(602,351)"/>
<path d="M0 0 C0.87454834 0.00523682 1.74909668 0.01047363 2.65014648 0.01586914 C3.59438477 0.0190918 4.53862305 0.02231445 5.51147461 0.02563477 C6.50469727 0.03401367 7.49791992 0.04239258 8.52124023 0.05102539 C9.51833008 0.05553711 10.51541992 0.06004883 11.54272461 0.06469727 C14.01478872 0.07652532 16.48673541 0.0930069 18.95874023 0.11352539 C18.62874023 2.42352539 18.29874023 4.73352539 17.95874023 7.11352539 C14.32874023 7.11352539 10.69874023 7.11352539 6.95874023 7.11352539 C6.95874023 9.42352539 6.95874023 11.73352539 6.95874023 14.11352539 C9.26874023 14.11352539 11.57874023 14.11352539 13.95874023 14.11352539 C13.95874023 16.09352539 13.95874023 18.07352539 13.95874023 20.11352539 C11.31874023 20.11352539 8.67874023 20.11352539 5.95874023 20.11352539 C5.95874023 22.75352539 5.95874023 25.39352539 5.95874023 28.11352539 C10.57874023 28.11352539 15.19874023 28.11352539 19.95874023 28.11352539 C19.95874023 30.09352539 19.95874023 32.07352539 19.95874023 34.11352539 C12.69874023 34.11352539 5.43874023 34.11352539 -2.04125977 34.11352539 C-2.20672231 29.43220816 -2.36910748 24.75100252 -2.5234375 20.06933594 C-2.57692771 18.47552283 -2.63226232 16.88177054 -2.68945312 15.28808594 C-2.77116919 13.00216797 -2.84632873 10.71611593 -2.92016602 8.42993164 C-2.94720108 7.71325821 -2.97423615 6.99658478 -3.00209045 6.25819397 C-3.05423621 4.54404772 -3.05311605 2.82842363 -3.04125977 1.11352539 C-2.04125977 0.11352539 -2.04125977 0.11352539 0 0 Z " fill="#C9B5DD" transform="translate(385.041259765625,350.886474609375)"/>
<path d="M0 0 C7.92 0 15.84 0 24 0 C23.67 1.98 23.34 3.96 23 6 C20.36 6 17.72 6 15 6 C15 15.24 15 24.48 15 34 C12.03 34 9.06 34 6 34 C6 25.09 6 16.18 6 7 C3.69 7 1.38 7 -1 7 C-0.67 4.69 -0.34 2.38 0 0 Z " fill="#D2C2E1" transform="translate(344,351)"/>
<path d="M0 0 C3.10869381 3.10869381 3.18165527 6.41094323 3.3125 10.6875 C3.21015992 18.41986138 0.03200538 24.6944032 -5.19140625 30.30859375 C-15.27811903 39.74173982 -26.57006278 43.58555452 -40.23730469 43.41137695 C-46.44832624 43.16508828 -53.43215609 42.56784391 -58 38 C-58.804375 37.71125 -59.60875 37.4225 -60.4375 37.125 C-63.32130844 35.85893776 -64.3386679 34.62315594 -66 32 C-63.18705395 32.91230683 -60.4158368 33.81376198 -57.71484375 35.0234375 C-47.61459902 39.3194692 -35.71787762 39.7633671 -25.3046875 36.046875 C-16.01490142 31.82710776 -5.85333662 25.93142987 -2 16 C-0.88768068 10.7295026 -0.4359372 5.36137686 0 0 Z " fill="#EEEAF3" transform="translate(382,220)"/>
<path d="M0 0 C3.3 0 6.6 0 10 0 C10 11.22 10 22.44 10 34 C7.03 34 4.06 34 1 34 C0.67 22.78 0.34 11.56 0 0 Z " fill="#CDBCDC" transform="translate(224,351)"/>
<path d="M0 0 C2.97 0 5.94 0 9 0 C9 11.22 9 22.44 9 34 C6.36 34 3.72 34 1 34 C1 24.76 1 15.52 1 6 C0.34 6 -0.32 6 -1 6 C-0.67 4.02 -0.34 2.04 0 0 Z " fill="#6828A5" transform="translate(539,351)"/>
<path d="M0 0 C0.99 1.32 1.98 2.64 3 4 C-1.56123636 6.82362251 -6.30027993 9.16897196 -11.1875 11.375 C-12.37730469 11.91898438 -13.56710937 12.46296875 -14.79296875 13.0234375 C-18 14 -18 14 -20.36328125 13.3515625 C-22 12 -22 12 -23 9 C-22.401875 8.896875 -21.80375 8.79375 -21.1875 8.6875 C-18.9539782 8.18036556 -18.9539782 8.18036556 -17.6640625 6.58984375 C-13.26322397 2.38528675 -5.90138167 0.62119807 0 0 Z " fill="#EEE6F5" transform="translate(380,174)"/>
<path d="M0 0 C2.20924769 1.05080227 4.27622622 2.17419257 6.34765625 3.48046875 C13.42465362 7.93032177 20.47374314 10.8554909 28.41235352 13.42651367 C33.50421735 15.14903228 36.51510033 16.87444201 40 21 C30.85901482 21 20.8518454 15.00077722 12.84765625 10.8984375 C10.89668778 9.90533386 10.89668778 9.90533386 8.3125 9.0625 C5.1616997 7.614835 3.27267868 5.5883285 1 3 C0.67 2.01 0.34 1.02 0 0 Z " fill="#E5DDED" transform="translate(314,201)"/>
<path d="M0 0 C2.79642252 1.46725873 4.72081186 2.51979221 5.9609375 5.49609375 C5.9815625 6.07359375 6.0021875 6.65109375 6.0234375 7.24609375 C5.1984375 6.89546875 4.3734375 6.54484375 3.5234375 6.18359375 C-0.99844192 4.97237605 -3.41274927 5.14194539 -7.9765625 6.24609375 C-10.29264124 8.70242448 -10.29264124 8.70242448 -11.9765625 11.24609375 C-12.9665625 11.24609375 -13.9565625 11.24609375 -14.9765625 11.24609375 C-15.34337473 3.78757847 -15.34337473 3.78757847 -13.6640625 1.30859375 C-9.47906009 -1.32640776 -4.62888632 -1.76556336 0 0 Z " fill="#EFE9F6" transform="translate(348.9765625,175.75390625)"/>
<path d="M0 0 C2.97 0.33 5.94 0.66 9 1 C9.29296875 7.8359375 9.29296875 7.8359375 9 10 C6 12 6 12 0 12 C0 8.04 0 4.08 0 0 Z " fill="#1E0C2F" transform="translate(467,357)"/>
<path d="M0 0 C3.10869381 3.10869381 3.18165527 6.41094323 3.3125 10.6875 C3.28815281 16.14938546 1.56960447 20.25082032 -1 25 C-1.66 24.34 -2.32 23.68 -3 23 C-3.99 23.99 -4.98 24.98 -6 26 C-6.66 25.67 -7.32 25.34 -8 25 C-7.59007812 24.5359375 -7.18015625 24.071875 -6.7578125 23.59375 C-1.07039526 16.30079392 -0.63493812 8.92197531 0 0 Z " fill="#E7DFEE" transform="translate(382,220)"/>
<path d="M0 0 C2.875 -0.125 2.875 -0.125 6 0 C8 2 8 2 8.3125 4.9375 C8 8 8 8 6.8125 9.875 C5 11 5 11 0 11 C0 7.37 0 3.74 0 0 Z " fill="#26103A" transform="translate(508,358)"/>
<path d="M0 0 C1.99954746 -0.04254356 4.00041636 -0.04080783 6 0 C7 1 7 1 7.1328125 2.8125 C7.13023437 3.534375 7.12765625 4.25625 7.125 5 C7.12757813 5.721875 7.13015625 6.44375 7.1328125 7.1875 C7 9 7 9 6 10 C4.00041636 10.04080783 1.99954746 10.04254356 0 10 C0 6.7 0 3.4 0 0 Z " fill="#241235" transform="translate(428,358)"/>
<path d="M0 0 C2.97 0 5.94 0 9 0 C9 0.66 9 1.32 9 2 C6.69 2 4.38 2 2 2 C2 3.32 2 4.64 2 6 C2.85464844 5.98839844 3.70929688 5.97679687 4.58984375 5.96484375 C5.69457031 5.95582031 6.79929687 5.94679688 7.9375 5.9375 C9.03964844 5.92589844 10.14179688 5.91429687 11.27734375 5.90234375 C14 6 14 6 15 7 C15.04092937 9.33297433 15.04241723 11.66705225 15 14 C14.67 14 14.34 14 14 14 C14 12.02 14 10.04 14 8 C9.38 8 4.76 8 0 8 C0 5.36 0 2.72 0 0 Z " fill="#514061" transform="translate(275,371)"/>
<path d="M0 0 C0.66 0 1.32 0 2 0 C2.0878954 3.35399849 2.14068879 6.7076964 2.1875 10.0625 C2.21263672 11.00544922 2.23777344 11.94839844 2.26367188 12.91992188 C2.32478517 18.76642736 1.74104641 22.81287544 -1 28 C-1.33 28 -1.66 28 -2 28 C-1.7834375 26.081875 -1.7834375 26.081875 -1.5625 24.125 C-0.75121024 16.10482119 -0.4120684 8.04848482 0 0 Z " fill="#B9ADC4" transform="translate(430,172)"/>
<path d="M0 0 C4.01288641 6.01932961 5.46715232 12.83699771 5 20 C1.57482917 17.71655278 1.12830009 16.85233888 0 13 C-0.1953125 9.66796875 -0.1953125 9.66796875 -0.125 6.1875 C-0.10695313 5.02605469 -0.08890625 3.86460937 -0.0703125 2.66796875 C-0.04710937 1.78753906 -0.02390625 0.90710938 0 0 Z " fill="#D7CBE1" transform="translate(259,190)"/>
<path d="M0 0 C2.97 0.33 5.94 0.66 9 1 C9 3.97 9 6.94 9 10 C8.67 10 8.34 10 8 10 C8 7.36 8 4.72 8 2 C6.02 2 4.04 2 2 2 C2 4.97 2 7.94 2 11 C3.32 11.33 4.64 11.66 6 12 C4.02 12 2.04 12 0 12 C0 8.04 0 4.08 0 0 Z " fill="#4D3168" transform="translate(467,357)"/>
<path d="M0 0 C2.97 0 5.94 0 9 0 C9.33 4.95 9.66 9.9 10 15 C9.01 14.67 8.02 14.34 7 14 C7 9.71 7 5.42 7 1 C4.69 1 2.38 1 0 1 C0 0.67 0 0.34 0 0 Z " fill="#7F5DA0" transform="translate(105,351)"/>
<path d="M0 0 C0.66 0 1.32 0 2 0 C1.58846263 4.97093824 1.20399168 9.44508386 -1 14 C-1.66 14 -2.32 14 -3 14 C-2.58846263 9.02906176 -2.20399168 4.55491614 0 0 Z " fill="#E8E0EF" transform="translate(426,201)"/>
<path d="M0 0 C2.40243465 2.15344283 3.60244944 3.96874765 4.6875 7 C4.93886719 7.680625 5.19023437 8.36125 5.44921875 9.0625 C6 11 6 11 6 14 C5.01 14 4.02 14 3 14 C0.96006486 9.07015675 -0.40652968 5.42039575 0 0 Z " fill="#E4E0E7" transform="translate(264,211)"/>
<path d="M0 0 C5.71937959 1.85493392 11.35555275 3.93103891 17 6 C13.234375 8.0234375 13.234375 8.0234375 11.125 7.8125 C6.34623402 5.98532477 2.76498274 4.45469441 0 0 Z " fill="#DFD6E8" transform="translate(316,252)"/>
<path d="M0 0 C0.66 0 1.32 0 2 0 C2.67154933 1.28913487 3.33708859 2.58140204 4 3.875 C4.37125 4.59429687 4.7425 5.31359375 5.125 6.0546875 C6 8 6 8 6 10 C5.01 10.33 4.02 10.66 3 11 C0.29417212 7.16674383 -0.32613618 4.67461851 0 0 Z " fill="#E7E2EC" transform="translate(270,226)"/>
<path d="M0 0 C2.76223278 2.76223278 2.57856291 5.20706617 3 9 C1.35 9 -0.3 9 -2 9 C-1.125 1.125 -1.125 1.125 0 0 Z " fill="#2D1642" transform="translate(76,364)"/>
<path d="M0 0 C3.44137432 1.5294997 6.2222133 3.45369552 9 6 C9 6.99 9 7.98 9 9 C5.18063472 7.44396229 2.73955562 5.04395069 0 2 C0 1.34 0 0.68 0 0 Z " fill="#D6C0EA" transform="translate(314,201)"/>
<path d="M0 0 C0.66 0.33 1.32 0.66 2 1 C-1.63 4.63 -5.26 8.26 -9 12 C-9 7.8407692 -6.75316432 5.85455565 -4 3 C-1.6875 1.125 -1.6875 1.125 0 0 Z " fill="#7947AA" transform="translate(320,161)"/>
<path d="M0 0 C0.66 0.33 1.32 0.66 2 1 C1.175 1.845625 0.35 2.69125 -0.5 3.5625 C-2.84014589 6.32453135 -3.00003886 7.00048191 -3.3125 10.875 C-3.209375 11.90625 -3.10625 12.9375 -3 14 C-3.66 13.67 -4.32 13.34 -5 13 C-5.61538462 5.73846154 -5.61538462 5.73846154 -2.5 2 C-1.675 1.34 -0.85 0.68 0 0 Z " fill="#8D71A6" transform="translate(149,352)"/>
<path d="M0 0 C0.66 0.33 1.32 0.66 2 1 C0.71937515 2.7074998 -0.61767557 4.37373596 -2 6 C-2.66 6 -3.32 6 -4 6 C-3.67 8.64 -3.34 11.28 -3 14 C-3.66 13.67 -4.32 13.34 -5 13 C-5.61538462 5.73846154 -5.61538462 5.73846154 -2.5 2 C-1.675 1.34 -0.85 0.68 0 0 Z " fill="#521E84" transform="translate(568,352)"/>
<path d="M0 0 C0.66 0.33 1.32 0.66 2 1 C0.78192862 2.15762119 -0.45001235 3.3006583 -1.6875 4.4375 C-2.71423828 5.39462891 -2.71423828 5.39462891 -3.76171875 6.37109375 C-6.22289422 8.16221098 -8.00816574 8.62798558 -11 9 C-7.67149253 5.40521193 -4.01028669 2.77635232 0 0 Z " fill="#AD7ED9" transform="translate(376,250)"/>
<path d="M0 0 C0.99 0.33 1.98 0.66 3 1 C3 2.65 3 4.3 3 6 C2.34 5.34 1.68 4.68 1 4 C0.01 4.99 -0.98 5.98 -2 7 C-2.66 6.67 -3.32 6.34 -4 6 C-2.68 4.02 -1.36 2.04 0 0 Z " fill="#DDD9E0" transform="translate(378,239)"/>
<path d="M0 0 C0.99 0.33 1.98 0.66 3 1 C3 3.31 3 5.62 3 8 C2.01 7.34 1.02 6.68 0 6 C-0.1875 2.875 -0.1875 2.875 0 0 Z " fill="#E6DEED" transform="translate(261,202)"/>
<path d="M0 0 C1.65 0 3.3 0 5 0 C3.68 1.32 2.36 2.64 1 4 C2.32 4.33 3.64 4.66 5 5 C4.01 5.495 4.01 5.495 3 6 C0.875 5.0625 0.875 5.0625 -1 4 C-0.67 2.68 -0.34 1.36 0 0 Z " fill="#2E104A" transform="translate(649,358)"/>
<path d="M0 0 C-0.66 1.32 -1.32 2.64 -2 4 C-2.66 4 -3.32 4 -4 4 C-4 6.31 -4 8.62 -4 11 C-4.33 11 -4.66 11 -5 11 C-5.36717663 3.5340751 -5.36717663 3.5340751 -3.625 1 C-2 0 -2 0 0 0 Z " fill="#5A248F" transform="translate(30,353)"/>
</svg>
